<?xml version="1.0" encoding="UTF-8" standalone="no"?>
<svg
   xmlns:dc="http://purl.org/dc/elements/1.1/"
   xmlns:cc="http://creativecommons.org/ns#"
   xmlns:rdf="http://www.w3.org/1999/02/22-rdf-syntax-ns#"
   xmlns:svg="http://www.w3.org/2000/svg"
   xmlns="http://www.w3.org/2000/svg"
   width="105"
   height="105"
   viewBox="0 0 105 104.99999"
   id="svg2"
   version="1.1">
  <title
     id="logo-lafe">Logo LaFe</title>
  <defs
     id="defs4" />
  <g
     transform="matrix(0.41094575,0,0,0.41094575,-140.35329,-35.681327)"
     id="g5229"
     style="fill:#006ee6;fill-opacity:1">
    <path
       id="path5065"
       d="m 383.53317,256.05576 1.99219,0 q 3.24219,0 4.55078,-2.34375 1.32813,-2.34375 1.32813,-8.30078 0,-5.9375 -1.3086,-8.26172 -1.30859,-2.34375 -4.57031,-2.34375 l -1.99219,0 0,21.25 z m -3.88672,3.67188 0,-28.51563 5.07813,0 q 5.82031,0 8.18359,3.20313 2.38282,3.18359 2.38282,11.03515 0,7.8711 -2.38282,11.07422 -2.36328,3.20313 -8.18359,3.20313 l -5.07813,0 z" />
    <path
       id="path5067"
       d="m 401.44333,248.04795 5.37109,0 0,-0.48828 q 0,-2.36328 -0.625,-3.41797 -0.625,-1.05469 -2.01172,-1.05469 -1.34765,0 -2.05078,1.26953 -0.68359,1.25 -0.68359,3.69141 z m 8.57422,5.27344 0,0.2539 q 0,3.02735 -1.52344,4.76563 -1.52344,1.73828 -4.16016,1.73828 -3.22265,0 -4.72656,-2.38281 -1.48437,-2.40235 -1.48437,-7.65625 0,-4.94141 1.48437,-7.38282 1.50391,-2.4414 4.53125,-2.4414 3.22266,0 4.64844,2.22656 1.42578,2.20703 1.42578,7.24609 l 0,1.11329 -8.76953,0 0,0.5664 q 0,3.00781 0.68359,4.375 0.6836,1.34766 2.16797,1.34766 1.19141,0 1.79688,-0.9375 0.625,-0.9375 0.68359,-2.8125 l 3.24219,-0.0195 z" />
    <path
       id="path5069"
       d="m 416.77536,250.11826 q 0,3.69141 0.60547,5.17578 0.625,1.46485 2.05078,1.46485 1.42578,0 2.03125,-1.46485 0.60547,-1.48437 0.60547,-5.17578 0,-3.67187 -0.60547,-5.13672 -0.60547,-1.48437 -2.03125,-1.48437 -1.42578,0 -2.05078,1.48437 -0.60547,1.46485 -0.60547,5.13672 z m -3.39844,17.32422 0,-26.875 3.53516,0 0,1.83594 q 0.70312,-1.13281 1.62109,-1.66016 0.9375,-0.52734 2.16797,-0.52734 2.51953,0 3.71094,2.42187 1.21094,2.40235 1.21094,7.48047 0,5.09766 -1.21094,7.51953 -1.19141,2.40235 -3.71094,2.40235 -1.21094,0 -2.14844,-0.54688 -0.91796,-0.54687 -1.64062,-1.67969 l 0,9.62891 -3.53516,0 z" />
    <path
       id="path5071"
       d="m 437.12692,259.72764 0,-1.875 q -0.72265,1.15234 -1.66015,1.69922 -0.91797,0.52734 -2.12891,0.52734 -2.42187,0 -3.67187,-2.51953 -1.25,-2.51953 -1.25,-7.44141 0,-4.88281 1.23046,-7.38281 1.25,-2.51953 3.69141,-2.51953 1.23047,0 2.14844,0.52734 0.9375,0.52735 1.64062,1.66016 l 0,-1.83594 3.51563,0 0,19.16016 -3.51563,0 z m -5.15625,-9.60938 q 0,3.67188 0.60547,5.17578 0.625,1.50391 2.03125,1.50391 1.40625,0 2.01172,-1.50391 0.625,-1.52343 0.625,-5.17578 0,-3.67187 -0.60547,-5.13672 -0.60547,-1.48437 -2.03125,-1.48437 -1.42578,0 -2.03125,1.48437 -0.60547,1.46485 -0.60547,5.13672 z" />
    <path
       id="path5073"
       d="m 444.88083,259.72764 0,-19.16016 3.39844,0 0,2.79297 q 0.72265,-1.52344 1.85547,-2.28516 1.13281,-0.78125 2.77343,-0.85937 l 0,3.71094 -0.58593,0 q -2.05079,0 -3.00782,1.03515 -0.95703,1.01563 -0.95703,3.20313 l 0,11.5625 -3.47656,0 z" />
    <path
       id="path5075"
       d="m 455.89645,259.72764 0,-16.5625 -1.91406,0 0,-2.59766 1.91406,0 0,-5.19531 3.51563,0 0,5.19531 2.63672,0 0,2.59766 -2.63672,0 0,16.5625 -3.51563,0 z" />
    <path
       id="path5077"
       d="m 472.3613,259.72764 0,-1.875 q -0.72266,1.15234 -1.66016,1.69922 -0.91797,0.52734 -2.1289,0.52734 -2.42188,0 -3.67188,-2.51953 -1.25,-2.51953 -1.25,-7.44141 0,-4.88281 1.23047,-7.38281 1.25,-2.51953 3.69141,-2.51953 1.23046,0 2.14843,0.52734 0.9375,0.52735 1.64063,1.66016 l 0,-1.83594 3.51562,0 0,19.16016 -3.51562,0 z m -5.15625,-9.60938 q 0,3.67188 0.60547,5.17578 0.625,1.50391 2.03125,1.50391 1.40625,0 2.01172,-1.50391 0.625,-1.52343 0.625,-5.17578 0,-3.67187 -0.60547,-5.13672 -0.60547,-1.48437 -2.03125,-1.48437 -1.42578,0 -2.03125,1.48437 -0.60547,1.46485 -0.60547,5.13672 z" />
    <path
       id="path5079"
       d="m 480.07614,259.72764 0,-19.16016 3.47656,0 0,1.91406 q 0.66407,-1.05468 1.64063,-1.58203 0.97656,-0.52734 2.28516,-0.52734 1.28906,0 2.20703,0.5664 0.9375,0.54688 1.66015,1.75782 0.78125,-1.17188 1.83594,-1.73828 1.05469,-0.58594 2.40234,-0.58594 2.10938,0 3.125,1.17187 1.03516,1.17188 1.03516,3.57422 l 0,14.60938 -3.51562,0 0,-12.8711 q 0,-1.95312 -0.50782,-2.65625 -0.50781,-0.70312 -1.77734,-0.70312 -1.15234,0 -1.75781,0.74219 -0.60547,0.72265 -0.60547,2.16796 l 0,13.32032 -3.47656,0 0,-12.8711 q 0,-1.91406 -0.50782,-2.63672 -0.50781,-0.72265 -1.71875,-0.72265 -1.13281,0 -1.71875,0.74219 -0.5664,0.72265 -0.5664,2.16796 l 0,13.32032 -3.51563,0 z" />
    <path
       id="path5081"
       d="m 506.3652,248.04795 5.3711,0 0,-0.48828 q 0,-2.36328 -0.625,-3.41797 -0.625,-1.05469 -2.01172,-1.05469 -1.34766,0 -2.05078,1.26953 -0.6836,1.25 -0.6836,3.69141 z m 8.57422,5.27344 0,0.2539 q 0,3.02735 -1.52343,4.76563 -1.52344,1.73828 -4.16016,1.73828 -3.22266,0 -4.72656,-2.38281 -1.48438,-2.40235 -1.48438,-7.65625 0,-4.94141 1.48438,-7.38282 1.5039,-2.4414 4.53125,-2.4414 3.22265,0 4.64843,2.22656 1.42579,2.20703 1.42579,7.24609 l 0,1.11329 -8.76954,0 0,0.5664 q 0,3.00781 0.6836,4.375 0.68359,1.34766 2.16797,1.34766 1.1914,0 1.79687,-0.9375 0.625,-0.9375 0.6836,-2.8125 l 3.24218,-0.0195 z" />
    <path
       id="path5083"
       d="m 518.51364,259.72764 0,-19.16016 3.47656,0 0,1.91406 q 0.70313,-1.05468 1.69922,-1.58203 1.01563,-0.52734 2.34375,-0.52734 2.10938,0 3.125,1.17187 1.03516,1.17188 1.03516,3.57422 l 0,14.60938 -3.53516,0 0,-12.8711 q 0,-1.95312 -0.50781,-2.65625 -0.50781,-0.70312 -1.75781,-0.70312 -1.17188,0 -1.77735,0.74219 -0.58593,0.72265 -0.58593,2.16796 l 0,13.32032 -3.51563,0 z" />
    <path
       id="path5085"
       d="m 534.64645,259.72764 0,-16.5625 -1.91406,0 0,-2.59766 1.91406,0 0,-5.19531 3.51563,0 0,5.19531 2.63672,0 0,2.59766 -2.63672,0 0,16.5625 -3.51563,0 z" />
    <path
       id="path5050"
       d="m 383.20114,282.54824 q 0,3.67187 0.60547,5.15625 0.60547,1.46484 2.03125,1.46484 1.42578,0 2.03125,-1.46484 0.60547,-1.48438 0.60547,-5.15625 0,-3.69141 -0.60547,-5.15625 -0.60547,-1.48438 -2.03125,-1.48438 -1.42578,0 -2.03125,1.48438 -0.60547,1.46484 -0.60547,5.15625 z m 5.15625,9.55078 0,-1.875 q -0.72265,1.15234 -1.66015,1.69922 -0.91797,0.52734 -2.12891,0.52734 -2.53906,0 -3.73047,-2.40234 -1.19141,-2.42188 -1.19141,-7.5 0,-5.09766 1.19141,-7.5 1.19141,-2.42188 3.73047,-2.42188 1.23047,0 2.14844,0.52735 0.9375,0.52734 1.64062,1.66015 l 0,-12.98828 3.51563,0 0,30.27344 -3.51563,0 z" />
    <path
       id="path5052"
       d="m 398.37692,280.41933 5.3711,0 0,-0.48828 q 0,-2.36328 -0.625,-3.41797 -0.625,-1.05468 -2.01172,-1.05468 -1.34766,0 -2.05078,1.26953 -0.6836,1.25 -0.6836,3.6914 z m 8.57422,5.27344 0,0.25391 q 0,3.02734 -1.52344,4.76562 -1.52343,1.73828 -4.16015,1.73828 -3.22266,0 -4.72656,-2.38281 -1.48438,-2.40234 -1.48438,-7.65625 0,-4.94141 1.48438,-7.38281 1.5039,-2.44141 4.53125,-2.44141 3.22265,0 4.64843,2.22656 1.42578,2.20704 1.42578,7.2461 l 0,1.11328 -8.76953,0 0,0.56641 q 0,3.00781 0.6836,4.375 0.68359,1.34765 2.16797,1.34765 1.1914,0 1.79687,-0.9375 0.625,-0.9375 0.68359,-2.8125 l 3.24219,-0.0195 z" />
    <path
       id="path5054"
       d="m 417.88864,287.09902 q 1.36719,0.83984 2.51953,1.25 1.15235,0.39063 2.16797,0.39063 1.75781,0 2.79297,-1.01563 1.03516,-1.03516 1.03516,-2.75391 0,-2.51953 -3.96485,-5.76171 -0.46875,-0.39063 -0.70312,-0.58594 -2.53906,-2.08985 -3.55469,-3.86719 -1.01562,-1.79687 -1.01562,-4.02344 0,-3.22265 2.05078,-5.37109 2.05078,-2.14844 5.07812,-2.14844 1.32813,0 2.5586,0.3125 1.23046,0.3125 2.4414,0.97656 l 0,3.82813 q -1.11328,-0.78125 -2.1875,-1.15234 -1.05469,-0.39063 -2.08984,-0.39063 -1.81641,0 -2.91016,1.07422 -1.09375,1.05469 -1.09375,2.83203 0,2.46094 4.19922,5.82031 0.39063,0.3125 0.60547,0.46875 2.44141,1.97266 3.45703,3.78907 1.01563,1.8164 1.01563,4.16015 0,3.28125 -2.08985,5.41016 -2.08984,2.10937 -5.35156,2.10937 -1.19141,0 -2.42188,-0.35156 -1.23046,-0.35156 -2.53906,-1.07422 l 0,-3.92578 z" />
    <path
       id="path5056"
       d="m 441.56052,292.09902 0,-1.875 q -0.72266,1.15234 -1.66016,1.69922 -0.91797,0.52734 -2.12891,0.52734 -2.42187,0 -3.67187,-2.51953 -1.25,-2.51953 -1.25,-7.4414 0,-4.88282 1.23047,-7.38282 1.25,-2.51953 3.6914,-2.51953 1.23047,0 2.14844,0.52735 0.9375,0.52734 1.64063,1.66015 l 0,-1.83594 3.51562,0 0,19.16016 -3.51562,0 z m -5.15625,-9.60937 q 0,3.67187 0.60547,5.17578 0.625,1.5039 2.03125,1.5039 1.40625,0 2.01171,-1.5039 0.625,-1.52344 0.625,-5.17578 0,-3.67188 -0.60546,-5.13672 -0.60547,-1.48438 -2.03125,-1.48438 -1.42579,0 -2.03125,1.48438 -0.60547,1.46484 -0.60547,5.13672 z" />
    <path
       id="path5058"
       d="m 449.31442,292.09902 0,-30.27344 3.51563,0 0,30.27344 -3.51563,0 z" />
    <path
       id="path5060"
       d="m 457.24411,286.45449 0,-13.51563 3.51563,0 0,13.71094 q 0,1.32813 0.58593,2.01172 0.58594,0.68359 1.73828,0.68359 1.13282,0 1.71875,-0.68359 0.58594,-0.68359 0.58594,-2.01172 l 0,-13.71094 3.57422,0 0,13.51563 q 0,3.16406 -1.40625,4.58984 -1.38672,1.40625 -4.47266,1.40625 -3.08593,0 -4.47265,-1.40625 -1.36719,-1.42578 -1.36719,-4.58984 z" />
    <path
       id="path5062"
       d="m 473.45505,292.09902 0,-16.5625 -1.91406,0 0,-2.59766 1.91406,0 0,-5.19531 3.51562,0 0,5.19531 2.63672,0 0,2.59766 -2.63672,0 0,16.5625 -3.51562,0 z" />
  </g>
  <g
     transform="matrix(0.41094575,0,0,0.41094575,-140.35329,-35.681327)"
     id="g5221"
     style="fill:#0057b8;fill-opacity:1;stroke:none">
    <path
       id="path5045"
       d="m 391.31121,190.01622 21.57535,0 q 0.26312,2.50646 0.26312,4.84582 0,1.16968 -0.0877,2.08872 0,0.91903 -0.0877,1.58741 -0.0877,0.75195 -0.0877,1.33679 l -33.24008,0 0,-62.91206 q 2.89426,-0.25064 5.7008,-0.25064 1.31557,0 2.36803,0.0836 1.14017,0 1.92951,0.0835 0.96475,0.0836 1.66639,0.0836 l 0,53.05332 z" />
    <path
       id="path5047"
       d="m 430.40006,200.04205 q -7.89341,0 -11.2262,-3.2584 -3.33278,-3.34193 -3.33278,-9.52453 0,-6.09904 3.42049,-9.44098 3.50819,-3.34194 11.92784,-3.34194 l 8.06884,0 0,-2.17227 q 0,-1.75452 -0.61394,-2.84064 -0.52623,-1.16968 -1.57869,-1.75452 -0.96475,-0.66839 -2.36803,-0.91904 -1.40327,-0.25064 -2.98196,-0.25064 -2.19261,0 -4.29752,0.25064 -2.01722,0.25065 -3.6836,0.58484 -1.9295,0.3342 -3.59589,0.83549 -0.35083,-1.33678 -0.61394,-2.84065 -0.1754,-1.25323 -0.26311,-2.84065 -0.0877,-1.67098 0.0877,-3.34195 1.31557,-0.50128 3.15737,-0.83548 1.57867,-0.3342 3.859,-0.58484 2.28033,-0.25064 5.34998,-0.25064 9.1213,0 13.68194,3.17484 4.64835,3.09129 4.64835,11.11196 l 0,27.9052 q -2.98196,0.0836 -6.22703,0.16711 -2.80656,0.0835 -6.31474,0.0835 -3.42049,0.0836 -7.10409,0.0836 z m 0.87706,-7.93711 q 1.31557,0 2.63113,0 1.40328,0 2.63114,-0.0835 1.40328,-0.0836 2.71886,-0.1671 l 0,-9.69163 -7.19179,-0.0835 q -1.92951,0 -3.06967,0.41773 -1.14016,0.41775 -1.7541,1.16968 -0.52623,0.75195 -0.70163,1.67097 -0.17541,0.91904 -0.17541,1.92162 0,2.00517 0.87704,3.42549 0.96476,1.42033 4.03443,1.42033 z" />
    <g
       transform="matrix(1.2450838,0,0,1.1814937,-106.56778,-41.782403)"
       id="path4149">
      <path
         d="m 459.08762,168.3468 37.151,0 q 0,0.59921 0.0856,1.36962 0.0856,0.68482 0.0856,1.62643 0.0856,0.85601 0.0856,2.05443 0,2.39684 -0.25681,4.96489 l -26.27963,0 0,16.26426 24.56761,0 q 0,0.68481 0.0856,1.54083 0.0856,0.68481 0.0856,1.71203 0.0856,0.94161 0.0856,2.14003 0,2.14004 -0.2568,4.70808 l -24.56761,0 0,28.07726 q -0.59921,0.0856 -1.36962,0.1712 -0.68481,0.0856 -1.62643,0.0856 -0.94161,0 -2.22563,0 -2.73925,0 -5.64969,-0.2568 l 0,-64.45786 z"
         id="path5042" />
    </g>
    <g
       transform="matrix(1.2450838,0,0,1.1814937,-109.97461,-41.782403)"
       id="path4153">
      <path
         d="m 510.70522,204.72472 q 0,4.87928 2.73925,6.93372 2.82484,2.05443 7.27612,2.05443 2.73924,0 4.87928,-0.3424 2.14003,-0.34241 3.76646,-0.77042 1.79763,-0.51361 3.33845,-1.19842 0.77042,1.71203 1.28403,3.25286 0.5136,1.54082 0.85601,2.82484 0.3424,1.54083 0.51361,2.82485 -1.62643,0.77041 -3.85207,1.28402 -1.88323,0.51361 -4.62247,0.85601 -2.65364,0.42801 -6.1633,0.42801 -10.95698,0 -15.75066,-5.47849 -4.79368,-5.56409 -4.79368,-16.69227 0,-10.95698 4.87928,-16.26427 4.96488,-5.39289 14.12423,-5.39289 4.28007,0 7.61853,1.45523 3.33845,1.45522 5.64969,4.19447 2.31124,2.65364 3.50966,6.5057 1.28402,3.76646 1.28402,8.47454 0,1.19842 -0.0856,2.14004 0,0.85601 -0.0856,1.54082 -0.0856,0.77041 -0.17121,1.36962 l -26.19403,0 z m 8.47454,-16.60667 q -4.36567,0 -6.3345,2.39684 -1.88323,2.31124 -1.96883,6.0777 l 15.32265,0 0,-1.28402 q 0,-1.28402 -0.42801,-2.56804 -0.34241,-1.28402 -1.19842,-2.31124 -0.77041,-1.02722 -2.14003,-1.62643 -1.36963,-0.68481 -3.25286,-0.68481 z"
         id="path5039" />
    </g>
  </g>
  <metadata
     id="metadata4989">
    <rdf:RDF>
      <cc:Work
         rdf:about="">
        <dc:title>Logo LaFe</dc:title>
      </cc:Work>
    </rdf:RDF>
  </metadata>
</svg>
